<svg width="22" height="23" viewBox="0 0 22 23" fill="none" xmlns="http://www.w3.org/2000/svg">
<path d="M11.6509 10.4753C11.4795 10.3053 11.2491 10.2101 11.0092 10.2101C10.7692 10.2101 10.5389 10.3053 10.3675 10.4753L7.61752 13.166C7.52025 13.2473 7.44059 13.348 7.38352 13.4618C7.32645 13.5756 7.29319 13.7001 7.28583 13.8275C7.27847 13.955 7.29717 14.0826 7.34075 14.2023C7.38433 14.3221 7.45186 14.4315 7.53911 14.5237C7.62637 14.6158 7.73147 14.6888 7.84785 14.7379C7.96422 14.7871 8.08937 14.8114 8.21546 14.8094C8.34155 14.8074 8.46587 14.7791 8.58065 14.7262C8.69543 14.6733 8.79819 14.597 8.88252 14.5021L10.0834 13.3238V18.5568C10.0834 18.8029 10.1799 19.0389 10.3518 19.2129C10.5237 19.3869 10.7569 19.4846 11 19.4846C11.2431 19.4846 11.4763 19.3869 11.6482 19.2129C11.8201 19.0389 11.9167 18.8029 11.9167 18.5568V13.3702L13.0992 14.5764C13.1844 14.6633 13.2858 14.7323 13.3975 14.7794C13.5092 14.8266 13.629 14.8508 13.75 14.8508C13.871 14.8508 13.9908 14.8266 14.1025 14.7794C14.2143 14.7323 14.3156 14.6633 14.4009 14.5764C14.4868 14.4901 14.555 14.3875 14.6015 14.2744C14.648 14.1613 14.672 14.0401 14.672 13.9176C14.672 13.7951 14.648 13.6738 14.6015 13.5608C14.555 13.4477 14.4868 13.3451 14.4009 13.2588L11.6509 10.4753Z" fill="#878787"/>
<path d="M16.1975 6.49487C15.8235 5.401 15.1219 4.45235 14.1903 3.78091C13.2588 3.10948 12.1436 2.74866 11 2.74866C9.8564 2.74866 8.74124 3.10948 7.80969 3.78091C6.87814 4.45235 6.17653 5.401 5.8025 6.49487C4.97892 6.60652 4.20082 6.9427 3.55144 7.46742C2.90205 7.99215 2.40582 8.6857 2.11581 9.47387C1.82581 10.262 1.75295 11.1152 1.90502 11.942C2.05709 12.7689 2.42838 13.5383 2.97916 14.1681C3.04569 14.2867 3.13724 14.389 3.24729 14.4677C3.35735 14.5465 3.48319 14.5996 3.61587 14.6235C3.74855 14.6474 3.88479 14.6414 4.01491 14.6059C4.14502 14.5704 4.2658 14.5063 4.36865 14.4181C4.47149 14.33 4.55387 14.22 4.60993 14.0959C4.66598 13.9719 4.69432 13.8369 4.69294 13.7005C4.69156 13.5641 4.66048 13.4297 4.60193 13.3068C4.54337 13.184 4.45877 13.0757 4.35416 12.9897C3.99952 12.5884 3.76748 12.0916 3.68618 11.5595C3.60487 11.0274 3.67778 10.4828 3.89608 9.99177C4.11438 9.50076 4.46869 9.08437 4.91607 8.79306C5.36346 8.50175 5.88471 8.34804 6.41666 8.35055H6.50833C6.72278 8.35492 6.93196 8.28304 7.09945 8.14742C7.26694 8.01179 7.38214 7.82101 7.425 7.60828C7.59331 6.7693 8.043 6.01501 8.69787 5.47323C9.35275 4.93144 10.1725 4.63548 11.0183 4.63548C11.8641 4.63548 12.6839 4.93144 13.3388 5.47323C13.9937 6.01501 14.4434 6.7693 14.6117 7.60828C14.6545 7.82101 14.7697 8.01179 14.9372 8.14742C15.1047 8.28304 15.3139 8.35492 15.5283 8.35055H15.5833C16.1153 8.34804 16.6365 8.50175 17.0839 8.79306C17.5313 9.08437 17.8856 9.50076 18.1039 9.99177C18.3222 10.4828 18.3951 11.0274 18.3138 11.5595C18.2325 12.0916 18.0005 12.5884 17.6458 12.9897C17.5651 13.0814 17.5031 13.1884 17.4635 13.3044C17.4239 13.4205 17.4075 13.5434 17.4152 13.6659C17.4228 13.7885 17.4545 13.9083 17.5082 14.0184C17.562 14.1285 17.6368 14.2267 17.7283 14.3073C17.8954 14.4564 18.1105 14.5389 18.3333 14.5392C18.4635 14.5391 18.5921 14.5108 18.7106 14.4564C18.8292 14.402 18.9349 14.3227 19.0208 14.2238C19.5869 13.5951 19.9713 12.821 20.132 11.9861C20.2928 11.1512 20.2236 10.2877 19.9322 9.48991C19.6408 8.69211 19.1383 7.99076 18.4796 7.46255C17.8209 6.93433 17.0315 6.59957 16.1975 6.49487Z" fill="#878787"/>
</svg>
