<svg width="22" height="22" viewBox="0 0 22 22" fill="none" xmlns="http://www.w3.org/2000/svg">
<path d="M9.16666 12.8333H12.8333V19.2499H9.16666V12.8333Z" fill="#878787"/>
<path d="M18.7183 9.33164L11.6508 2.10831C11.5656 2.02239 11.4642 1.95419 11.3525 1.90766C11.2408 1.86112 11.121 1.83716 11 1.83716C10.879 1.83716 10.7592 1.86112 10.6475 1.90766C10.5358 1.95419 10.4344 2.02239 10.3492 2.10831L3.28165 9.34081C3.11063 9.5132 2.97557 9.71786 2.8843 9.94288C2.79303 10.1679 2.74738 10.4088 2.74998 10.6516V18.3333C2.74927 18.8026 2.92853 19.2542 3.25083 19.5953C3.57313 19.9363 4.01394 20.1408 4.48248 20.1666H7.33332V11.9166C7.33332 11.6735 7.42989 11.4404 7.6018 11.2685C7.77371 11.0966 8.00687 11 8.24998 11H13.75C13.9931 11 14.2263 11.0966 14.3982 11.2685C14.5701 11.4404 14.6667 11.6735 14.6667 11.9166V20.1666H17.5175C17.986 20.1408 18.4268 19.9363 18.7491 19.5953C19.0714 19.2542 19.2507 18.8026 19.25 18.3333V10.6516C19.2507 10.1593 19.0601 9.68601 18.7183 9.33164Z" fill="#878787"/>
</svg>
