<svg width="22" height="22" viewBox="0 0 22 22" fill="none" xmlns="http://www.w3.org/2000/svg">
<path d="M6.41666 5.50002C6.65977 5.50002 6.89293 5.40344 7.06484 5.23153C7.23675 5.05963 7.33332 4.82647 7.33332 4.58335C7.33332 4.34024 7.23675 4.10708 7.06484 3.93517C6.89293 3.76326 6.65977 3.66669 6.41666 3.66669H4.58332C4.34021 3.66669 4.10705 3.76326 3.93514 3.93517C3.76323 4.10708 3.66666 4.34024 3.66666 4.58335V17.4167C3.66666 17.6598 3.76323 17.893 3.93514 18.0649C4.10705 18.2368 4.34021 18.3334 4.58332 18.3334H6.41666C6.65977 18.3334 6.89293 18.2368 7.06484 18.0649C7.23675 17.893 7.33332 17.6598 7.33332 17.4167C7.33332 17.1736 7.23675 16.9404 7.06484 16.7685C6.89293 16.5966 6.65977 16.5 6.41666 16.5H5.49999V5.50002H6.41666Z" fill="#878787"/>
<path d="M19.085 10.4684L16.5 6.8017C16.3598 6.60408 16.147 6.47 15.9083 6.42877C15.6695 6.38755 15.4241 6.44253 15.2258 6.5817C15.1267 6.65117 15.0423 6.73959 14.9775 6.84186C14.9127 6.94412 14.8688 7.05821 14.8484 7.17752C14.8279 7.29684 14.8313 7.41903 14.8583 7.53703C14.8853 7.65503 14.9355 7.76651 15.0058 7.86504L16.5825 10.0834H16.5H9.16664C8.92352 10.0834 8.69036 10.1799 8.51846 10.3519C8.34655 10.5238 8.24997 10.7569 8.24997 11C8.24997 11.2432 8.34655 11.4763 8.51846 11.6482C8.69036 11.8201 8.92352 11.9167 9.16664 11.9167H16.5L14.85 14.1167C14.7777 14.213 14.7252 14.3226 14.6953 14.4392C14.6654 14.5558 14.6588 14.6772 14.6758 14.7963C14.6929 14.9155 14.7332 15.0302 14.7945 15.1337C14.8559 15.2373 14.937 15.3278 15.0333 15.4C15.192 15.519 15.385 15.5834 15.5833 15.5834C15.7256 15.5834 15.866 15.5502 15.9932 15.4866C16.1205 15.423 16.2313 15.3306 16.3166 15.2167L19.0666 11.55C19.184 11.395 19.2491 11.2066 19.2524 11.0122C19.2557 10.8178 19.197 10.6273 19.085 10.4684Z" fill="#878787"/>
</svg>
