<svg width="22" height="22" viewBox="0 0 22 22" fill="none" xmlns="http://www.w3.org/2000/svg">
<path d="M17.4167 18.3334H4.58332C4.34021 18.3334 4.10705 18.43 3.93514 18.6019C3.76323 18.7738 3.66666 19.0069 3.66666 19.25C3.66666 19.4932 3.76323 19.7263 3.93514 19.8982C4.10705 20.0701 4.34021 20.1667 4.58332 20.1667H17.4167C17.6598 20.1667 17.8929 20.0701 18.0648 19.8982C18.2367 19.7263 18.3333 19.4932 18.3333 19.25C18.3333 19.0069 18.2367 18.7738 18.0648 18.6019C17.8929 18.43 17.6598 18.3334 17.4167 18.3334Z" fill="#878787"/>
<path d="M4.58333 16.5H4.66583L8.48833 16.1516C8.90706 16.1099 9.2987 15.9254 9.5975 15.6291L17.8475 7.37912C18.1677 7.04084 18.3408 6.58942 18.3287 6.12378C18.3167 5.65813 18.1206 5.21625 17.7833 4.89495L15.2717 2.38328C14.9439 2.07537 14.5143 1.8987 14.0647 1.88687C13.6151 1.87503 13.1769 2.02887 12.8333 2.31912L4.58333 10.5691C4.28703 10.8679 4.10254 11.2596 4.06083 11.6783L3.66666 15.5008C3.65432 15.635 3.67174 15.7704 3.71769 15.8971C3.76364 16.0239 3.83698 16.139 3.9325 16.2341C4.01815 16.3191 4.11973 16.3863 4.23142 16.4319C4.3431 16.4775 4.46269 16.5006 4.58333 16.5ZM13.9975 3.66662L16.5 6.16912L14.6667 7.95662L12.21 5.49995L13.9975 3.66662ZM5.83916 11.8341L11 6.70995L13.475 9.18495L8.34166 14.3183L5.59166 14.575L5.83916 11.8341Z" fill="#878787"/>
</svg>
