<svg width="22" height="23" viewBox="0 0 22 23" fill="none" xmlns="http://www.w3.org/2000/svg">
<path d="M4.58334 1.85559C4.03945 1.85559 3.50776 2.01884 3.05553 2.3247C2.60329 2.63055 2.25082 3.06528 2.04268 3.5739C1.83454 4.08252 1.78008 4.64219 1.88619 5.18214C1.99229 5.72209 2.25421 6.21806 2.6388 6.60734C3.0234 6.99662 3.5134 7.26173 4.04685 7.36913C4.58029 7.47653 5.13323 7.42141 5.63572 7.21073C6.13822 7.00005 6.56771 6.64329 6.86989 6.18554C7.17206 5.72779 7.33334 5.18963 7.33334 4.6391C7.33334 3.90087 7.04361 3.19287 6.52789 2.67086C6.01216 2.14885 5.31269 1.85559 4.58334 1.85559Z" fill="#878787"/>
<path d="M11.0001 1.85559C10.4562 1.85559 9.92448 2.01884 9.47224 2.3247C9.02001 2.63055 8.66753 3.06528 8.45939 3.5739C8.25125 4.08252 8.19679 4.64219 8.3029 5.18214C8.40901 5.72209 8.67092 6.21806 9.05552 6.60734C9.44011 6.99662 9.93012 7.26173 10.4636 7.36913C10.997 7.47653 11.5499 7.42141 12.0524 7.21073C12.5549 7.00005 12.9844 6.64329 13.2866 6.18554C13.5888 5.72779 13.7501 5.18963 13.7501 4.6391C13.7501 3.90087 13.4603 3.19287 12.9446 2.67086C12.4289 2.14885 11.7294 1.85559 11.0001 1.85559Z" fill="#878787"/>
<path d="M17.4167 7.42262C17.9606 7.42262 18.4923 7.25936 18.9445 6.95351C19.3967 6.64765 19.7492 6.21293 19.9574 5.70431C20.1655 5.19569 20.22 4.63602 20.1138 4.09607C20.0077 3.55612 19.7458 3.06014 19.3612 2.67086C18.9766 2.28158 18.4866 2.01648 17.9532 1.90908C17.4197 1.80167 16.8668 1.8568 16.3643 2.06747C15.8618 2.27815 15.4323 2.63492 15.1301 3.09267C14.828 3.55041 14.6667 4.08858 14.6667 4.6391C14.6667 5.37734 14.9564 6.08533 15.4721 6.60734C15.9879 7.12935 16.6873 7.42262 17.4167 7.42262Z" fill="#878787"/>
<path d="M4.58338 8.35046C4.03948 8.35046 3.50779 8.51371 3.05556 8.81957C2.60332 9.12543 2.25085 9.56015 2.04271 10.0688C1.83457 10.5774 1.78011 11.1371 1.88622 11.677C1.99233 12.217 2.25424 12.7129 2.63883 13.1022C3.02343 13.4915 3.51343 13.7566 4.04688 13.864C4.58032 13.9714 5.13326 13.9163 5.63575 13.7056C6.13825 13.4949 6.56774 13.1382 6.86992 12.6804C7.17209 12.2227 7.33338 11.6845 7.33338 11.134C7.33338 10.3957 7.04364 9.68774 6.52792 9.16574C6.01219 8.64373 5.31272 8.35046 4.58338 8.35046Z" fill="#878787"/>
<path d="M11.0001 8.35046C10.4562 8.35046 9.92448 8.51371 9.47224 8.81957C9.02001 9.12543 8.66753 9.56015 8.45939 10.0688C8.25125 10.5774 8.19679 11.1371 8.3029 11.677C8.40901 12.217 8.67092 12.7129 9.05552 13.1022C9.44011 13.4915 9.93012 13.7566 10.4636 13.864C10.997 13.9714 11.5499 13.9163 12.0524 13.7056C12.5549 13.4949 12.9844 13.1382 13.2866 12.6804C13.5888 12.2227 13.7501 11.6845 13.7501 11.134C13.7501 10.3957 13.4603 9.68774 12.9446 9.16574C12.4289 8.64373 11.7294 8.35046 11.0001 8.35046Z" fill="#878787"/>
<path d="M17.4167 8.35046C16.8728 8.35046 16.3411 8.51371 15.8889 8.81957C15.4366 9.12543 15.0842 9.56015 14.876 10.0688C14.6679 10.5774 14.6134 11.1371 14.7195 11.677C14.8256 12.217 15.0876 12.7129 15.4721 13.1022C15.8567 13.4915 16.3467 13.7566 16.8802 13.864C17.4136 13.9714 17.9666 13.9163 18.4691 13.7056C18.9716 13.4949 19.4011 13.1382 19.7032 12.6804C20.0054 12.2227 20.1667 11.6845 20.1667 11.134C20.1667 10.3957 19.877 9.68774 19.3612 9.16574C18.8455 8.64373 18.146 8.35046 17.4167 8.35046Z" fill="#878787"/>
<path d="M4.58338 14.8455C4.03948 14.8455 3.50779 15.0087 3.05556 15.3146C2.60332 15.6204 2.25085 16.0551 2.04271 16.5638C1.83457 17.0724 1.78011 17.6321 1.88622 18.172C1.99233 18.712 2.25424 19.2079 2.63883 19.5972C3.02343 19.9865 3.51343 20.2516 4.04688 20.359C4.58032 20.4664 5.13326 20.4113 5.63575 20.2006C6.13825 19.9899 6.56774 19.6332 6.86992 19.1754C7.17209 18.7177 7.33338 18.1795 7.33338 17.629C7.33338 16.8907 7.04364 16.1827 6.52792 15.6607C6.01219 15.1387 5.31272 14.8455 4.58338 14.8455Z" fill="#878787"/>
<path d="M11.0001 14.8455C10.4562 14.8455 9.92448 15.0087 9.47224 15.3146C9.02001 15.6204 8.66753 16.0551 8.45939 16.5638C8.25125 17.0724 8.19679 17.6321 8.3029 18.172C8.40901 18.712 8.67092 19.2079 9.05552 19.5972C9.44011 19.9865 9.93012 20.2516 10.4636 20.359C10.997 20.4664 11.5499 20.4113 12.0524 20.2006C12.5549 19.9899 12.9844 19.6332 13.2866 19.1754C13.5888 18.7177 13.7501 18.1795 13.7501 17.629C13.7501 16.8907 13.4603 16.1827 12.9446 15.6607C12.4289 15.1387 11.7294 14.8455 11.0001 14.8455Z" fill="#878787"/>
<path d="M17.4167 14.8455C16.8728 14.8455 16.3411 15.0087 15.8889 15.3146C15.4366 15.6204 15.0842 16.0551 14.876 16.5638C14.6679 17.0724 14.6134 17.6321 14.7195 18.172C14.8256 18.712 15.0876 19.2079 15.4721 19.5972C15.8567 19.9865 16.3467 20.2516 16.8802 20.359C17.4136 20.4664 17.9666 20.4113 18.4691 20.2006C18.9716 19.9899 19.4011 19.6332 19.7032 19.1754C20.0054 18.7177 20.1667 18.1795 20.1667 17.629C20.1667 16.8907 19.877 16.1827 19.3612 15.6607C18.8455 15.1387 18.146 14.8455 17.4167 14.8455Z" fill="#878787"/>
</svg>
