<svg width="22" height="22" viewBox="0 0 22 22" fill="none" xmlns="http://www.w3.org/2000/svg">
<path d="M13.75 14.6666H8.24998C8.00686 14.6666 7.77371 14.7632 7.6018 14.9351C7.42989 15.107 7.33331 15.3402 7.33331 15.5833C7.33331 15.8264 7.42989 16.0596 7.6018 16.2315C7.77371 16.4034 8.00686 16.5 8.24998 16.5H13.75C13.9931 16.5 14.2263 16.4034 14.3982 16.2315C14.5701 16.0596 14.6666 15.8264 14.6666 15.5833C14.6666 15.3402 14.5701 15.107 14.3982 14.9351C14.2263 14.7632 13.9931 14.6666 13.75 14.6666Z" fill="#134A86"/>
<path d="M8.24998 12.8333H11C11.2431 12.8333 11.4763 12.7368 11.6482 12.5648C11.8201 12.3929 11.9166 12.1598 11.9166 11.9167C11.9166 11.6736 11.8201 11.4404 11.6482 11.2685C11.4763 11.0966 11.2431 11 11 11H8.24998C8.00686 11 7.77371 11.0966 7.6018 11.2685C7.42989 11.4404 7.33331 11.6736 7.33331 11.9167C7.33331 12.1598 7.42989 12.3929 7.6018 12.5648C7.77371 12.7368 8.00686 12.8333 8.24998 12.8333Z" fill="#134A86"/>
<path d="M18.095 7.63592L13.1083 2.13592C13.0226 2.04096 12.918 1.96499 12.8012 1.91289C12.6843 1.86079 12.5579 1.83372 12.43 1.83342H6.01332C5.70876 1.82978 5.40646 1.88618 5.1237 1.99939C4.84093 2.11259 4.58324 2.28039 4.36532 2.49319C4.14741 2.706 3.97355 2.95964 3.85367 3.23964C3.7338 3.51965 3.67025 3.82052 3.66666 4.12508V17.8751C3.67025 18.1796 3.7338 18.4805 3.85367 18.7605C3.97355 19.0405 4.14741 19.2942 4.36532 19.507C4.58324 19.7198 4.84093 19.8876 5.1237 20.0008C5.40646 20.114 5.70876 20.1704 6.01332 20.1667H15.9867C16.2912 20.1704 16.5935 20.114 16.8763 20.0008C17.159 19.8876 17.4167 19.7198 17.6347 19.507C17.8526 19.2942 18.0264 19.0405 18.1463 18.7605C18.2662 18.4805 18.3297 18.1796 18.3333 17.8751V8.25008C18.3327 8.0229 18.2478 7.80403 18.095 7.63592ZM12.8333 4.58342L15.345 7.33342H13.5117C13.4157 7.32762 13.3218 7.30276 13.2355 7.2603C13.1492 7.21783 13.0723 7.1586 13.0091 7.08607C12.946 7.01354 12.8979 6.92915 12.8677 6.83784C12.8375 6.74653 12.8258 6.65013 12.8333 6.55425V4.58342ZM15.9867 18.3334H6.01332C5.9495 18.3371 5.88557 18.3282 5.8252 18.3072C5.76483 18.2861 5.70921 18.2534 5.66152 18.2108C5.61383 18.1682 5.57501 18.1167 5.54729 18.059C5.51958 18.0014 5.5035 17.9389 5.49999 17.8751V4.12508C5.5035 4.06125 5.51958 3.99873 5.54729 3.94112C5.57501 3.88351 5.61383 3.83194 5.66152 3.78936C5.70921 3.74678 5.76483 3.71403 5.8252 3.69299C5.88557 3.67195 5.9495 3.66304 6.01332 3.66675H11V6.55425C10.9852 7.22949 11.2381 7.88316 11.7035 8.37262C12.1689 8.86207 12.809 9.14755 13.4842 9.16675H16.5V17.8751C16.4965 17.9389 16.4804 18.0014 16.4527 18.059C16.425 18.1167 16.3862 18.1682 16.3385 18.2108C16.2908 18.2534 16.2352 18.2861 16.1748 18.3072C16.1144 18.3282 16.0505 18.3371 15.9867 18.3334Z" fill="#134A86"/>
</svg>
