<svg width="22" height="23" viewBox="0 0 22 23" fill="none" xmlns="http://www.w3.org/2000/svg">
<path d="M19.25 5.56698H18.3334V4.63914C18.3334 4.39306 18.2368 4.15706 18.0649 3.98306C17.893 3.80906 17.6598 3.7113 17.4167 3.7113C17.1736 3.7113 16.9404 3.80906 16.7685 3.98306C16.5966 4.15706 16.5 4.39306 16.5 4.63914V5.56698H15.5834C15.3402 5.56698 15.1071 5.66473 14.9352 5.83874C14.7633 6.01274 14.6667 6.24874 14.6667 6.49482C14.6667 6.74089 14.7633 6.97689 14.9352 7.1509C15.1071 7.3249 15.3402 7.42265 15.5834 7.42265H16.5V8.35049C16.5 8.59657 16.5966 8.83257 16.7685 9.00657C16.9404 9.18057 17.1736 9.27833 17.4167 9.27833C17.6598 9.27833 17.893 9.18057 18.0649 9.00657C18.2368 8.83257 18.3334 8.59657 18.3334 8.35049V7.42265H19.25C19.4931 7.42265 19.7263 7.3249 19.8982 7.1509C20.0701 6.97689 20.1667 6.74089 20.1667 6.49482C20.1667 6.24874 20.0701 6.01274 19.8982 5.83874C19.7263 5.66473 19.4931 5.56698 19.25 5.56698Z" fill="#878787"/>
<path d="M9.16667 10.2061C9.89187 10.2061 10.6008 9.98848 11.2038 9.58067C11.8067 9.17286 12.2767 8.59323 12.5542 7.91507C12.8317 7.23691 12.9044 6.49068 12.7629 5.77075C12.6214 5.05082 12.2722 4.38952 11.7594 3.87048C11.2466 3.35144 10.5933 2.99796 9.882 2.85476C9.17073 2.71156 8.43349 2.78506 7.76349 3.06596C7.0935 3.34686 6.52084 3.82255 6.11794 4.43288C5.71505 5.04321 5.5 5.76076 5.5 6.4948C5.5 7.47911 5.88631 8.4231 6.57394 9.11912C7.26158 9.81513 8.19421 10.2061 9.16667 10.2061ZM9.16667 4.63912C9.52927 4.63912 9.88372 4.74796 10.1852 4.95186C10.4867 5.15577 10.7217 5.44558 10.8604 5.78466C10.9992 6.12374 11.0355 6.49686 10.9648 6.85682C10.894 7.21679 10.7194 7.54744 10.463 7.80696C10.2066 8.06648 9.87996 8.24321 9.52433 8.31482C9.1687 8.38642 8.80008 8.34967 8.46508 8.20922C8.13008 8.06877 7.84376 7.83092 7.64231 7.52575C7.44086 7.22059 7.33333 6.86182 7.33333 6.4948C7.33333 6.00264 7.52649 5.53064 7.8703 5.18264C8.21412 4.83463 8.68044 4.63912 9.16667 4.63912Z" fill="#878787"/>
<path d="M9.16667 12.0619C7.46486 12.0619 5.83276 12.7462 4.6294 13.9642C3.42604 15.1822 2.75 16.8342 2.75 18.5568C2.75 18.8028 2.84658 19.0388 3.01849 19.2128C3.19039 19.3868 3.42355 19.4846 3.66667 19.4846C3.90978 19.4846 4.14294 19.3868 4.31485 19.2128C4.48676 19.0388 4.58333 18.8028 4.58333 18.5568C4.58333 17.3264 5.06622 16.1464 5.92576 15.2764C6.7853 14.4063 7.95109 13.9176 9.16667 13.9176C10.3822 13.9176 11.548 14.4063 12.4076 15.2764C13.2671 16.1464 13.75 17.3264 13.75 18.5568C13.75 18.8028 13.8466 19.0388 14.0185 19.2128C14.1904 19.3868 14.4236 19.4846 14.6667 19.4846C14.9098 19.4846 15.1429 19.3868 15.3149 19.2128C15.4868 19.0388 15.5833 18.8028 15.5833 18.5568C15.5833 16.8342 14.9073 15.1822 13.7039 13.9642C12.5006 12.7462 10.8685 12.0619 9.16667 12.0619Z" fill="#878787"/>
</svg>
