<svg width="20" height="20" viewBox="0 0 20 20" fill="none" xmlns="http://www.w3.org/2000/svg">
<path d="M11.9417 16.6667H11.7667C11.414 16.6317 11.0817 16.4851 10.8179 16.2484C10.5542 16.0116 10.3728 15.6969 10.3001 15.35L8.06675 5.00001L5.76675 10.3333C5.70169 10.4824 5.59444 10.6092 5.45821 10.698C5.32198 10.7869 5.16272 10.8339 5.00008 10.8333H2.50008C2.27907 10.8333 2.06711 10.7455 1.91083 10.5893C1.75455 10.433 1.66675 10.221 1.66675 10C1.66675 9.77899 1.75455 9.56703 1.91083 9.41075C2.06711 9.25447 2.27907 9.16667 2.50008 9.16667H4.45008L6.54175 4.34167C6.68255 4.01789 6.92254 3.74719 7.22712 3.5686C7.53169 3.39001 7.88511 3.31275 8.23642 3.34798C8.58773 3.3832 8.91878 3.52908 9.18184 3.76459C9.44489 4.00009 9.62636 4.31305 9.70008 4.65834L11.9334 15L14.2334 9.68334C14.2959 9.53116 14.4021 9.40088 14.5385 9.30894C14.675 9.21699 14.8356 9.16749 15.0001 9.16667H17.5001C17.7211 9.16667 17.9331 9.25447 18.0893 9.41075C18.2456 9.56703 18.3334 9.77899 18.3334 10C18.3334 10.221 18.2456 10.433 18.0893 10.5893C17.9331 10.7455 17.7211 10.8333 17.5001 10.8333H15.5501L13.4584 15.6583C13.3307 15.9554 13.1193 16.209 12.85 16.388C12.5807 16.567 12.2651 16.6639 11.9417 16.6667Z" fill="white"/>
</svg>
